<svg xmlns="http://www.w3.org/2000/svg" viewBox="0 0 533.66 533.66" style="enable-background:new 0 0 142 142" xml:space="preserve"><path class="cls-1" d="M266.83 0C119.47 0 0 119.46 0 266.83s119.47 266.83 266.83 266.83S533.66 414.2 533.66 266.83 414.2 0 266.83 0Zm-90.18 186.59h-51v59.74h37.31v43.54h-37.31v58.46h51v42.29H82.11V144.33h94.54Zm133.72 29.86H268l.08-13.68a16.17 16.17 0 1 0-32.34 0v129.37a16.17 16.17 0 1 0 32.34 0v-42.3h-18.66v-43.51h60.95v144.3h-21.14v-8.86a57.55 57.55 0 0 1-36.7 13.22h-1.24a58 58 0 0 1-57.85-57.85V197.79a58 58 0 0 1 57.85-57.84h1.24a58 58 0 0 1 57.84 57.84Zm139.38 120.04a58.64 58.64 0 0 1-58.47 58.47 58.64 58.64 0 0 1-58.53-58.47V198.41a58.64 58.64 0 0 1 58.47-58.46 58.64 58.64 0 0 1 58.53 58.46Z"/><rect class="cls-1" x="375.05" y="186.59" width="32.34" height="161.72" rx="16.17"/></svg>